<?xml version="1.0" encoding="utf-8"?>
<!-- Svg Vector Icons : http://www.onlinewebfonts.com/icon -->
<!DOCTYPE svg PUBLIC "-//W3C//DTD SVG 1.1//EN" "http://www.w3.org/Graphics/SVG/1.1/DTD/svg11.dtd">
<svg version="1.1" xmlns="http://www.w3.org/2000/svg" xmlns:xlink="http://www.w3.org/1999/xlink" x="0px" y="0px" viewBox="0 0 1000 1000" enable-background="new 0 0 1000 1000" xml:space="preserve">
<metadata> Svg Vector Icons : http://www.onlinewebfonts.com/icon </metadata>
<g><path d="M920,990H80c-38.6,0-70-31.4-70-70V185c0-38.6,31.4-70,70-70h70v35c0,58,47,105,105,105c58,0,105-47,105-105v-35h280v35c0,58,47,105,105,105s105-47,105-105v-35h70c38.6,0,70,31.4,70,70v735C990,958.6,958.6,990,920,990z M920,360H80v560h840V360z M397.4,634c6.9-11,10.4-22.6,10.4-34.8c0-27.1-14.6-40.6-43.7-40.6c-25.3,0-49.5,10-72.6,30.1v-57c25.6-16.6,54.4-24.8,86.6-24.8c30.1,0,53.6,7.6,70.5,22.6c16.9,15.1,25.3,35.5,25.3,61.2c0,34.3-20.6,69.8-61.7,106.4L351.6,751v1.2h119.3v53.7H277.4v-50.4l84.3-80.6C378.6,658.7,390.5,645,397.4,634L397.4,634z M634.3,750.8c9.2-7.1,13.9-17,13.9-29.8c0-13.1-5.7-23.2-17.1-30.3C619.6,683.6,604,680,584,680h-26.5v-49.6h24.4c38.3,0,57.4-12.7,57.4-38.2c0-23.9-14.7-35.9-44.1-35.9c-19.7,0-38.8,6.4-57.4,19.1v-52.9c20.7-10.4,44.7-15.6,72.2-15.6c30.1,0,53.5,6.8,70.2,20.3c16.8,13.5,25.1,31.1,25.1,52.7c0,38.4-19.5,62.5-58.5,72.2v1c20.8,2.6,37.2,10.2,49.2,22.6c12,12.5,18.1,27.9,18.1,46c0,27.5-10,49.2-30.1,65.2c-20.1,16-47.8,24-83.3,24c-30.3,0-55-4.9-74-14.8v-56.4c19.7,14.3,42.7,21.5,68.9,21.5C612.2,761.5,625.1,757.9,634.3,750.8L634.3,750.8z M743.9,220c-38.1,0-68.9-30.8-68.9-68.9V78.9c0-38.1,30.8-68.9,68.9-68.9c38.1,0,68.9,30.8,68.9,68.9v72.2C812.8,189.2,782,220,743.9,220z M253.9,220c-38.1,0-68.9-30.8-68.9-68.9V78.9c0-38.1,30.8-68.9,68.9-68.9s68.9,30.8,68.9,68.9v72.2C322.8,189.2,292,220,253.9,220z"/></g>
</svg>