<?xml version="1.0" encoding="utf-8"?>
<!-- Svg Vector Icons : http://www.onlinewebfonts.com/icon -->
<!DOCTYPE svg PUBLIC "-//W3C//DTD SVG 1.1//EN" "http://www.w3.org/Graphics/SVG/1.1/DTD/svg11.dtd">
<svg version="1.1" xmlns="http://www.w3.org/2000/svg" xmlns:xlink="http://www.w3.org/1999/xlink" x="0px" y="0px" viewBox="0 0 1000 1000" enable-background="new 0 0 1000 1000" xml:space="preserve">
<metadata> Svg Vector Icons : http://www.onlinewebfonts.com/icon </metadata>
<g><g><path d="M440,491l12.5,42.5h-44.2l11.9-42.5c3.3-11.6,6.2-26.7,9.2-38.6h0.6C433,464.4,436.5,479.2,440,491z M990,500c0,38-14.9,73.8-41.7,100.6l-60.2,60.2v85.1c0,78.4-63.8,142.3-142.2,142.3h-85.1l-60.2,60.2C573.7,975.2,538,990,500,990c-38,0-73.8-14.8-100.6-41.7l-60.1-60.1h-85.1c-38,0-73.7-14.9-100.6-41.7c-26.9-27-41.6-62.6-41.6-100.6v-85.2l-60.2-60.1C24.8,573.8,10,538.1,10,500.1c0-38,14.8-73.8,41.7-100.6l60.2-60.2v-85.1c0-78.4,63.8-142.3,142.2-142.3h85.1l60.2-60.2C426.2,24.8,461.9,10,500,10s73.8,14.8,100.7,41.7l60.1,60.1h85.1c38,0,73.7,14.8,100.6,41.6c26.9,26.9,41.6,62.6,41.6,100.6v85.1l60.2,60.2C975.1,426.2,990,462,990,500z M324.8,559.6c0-28.2-16.6-46.6-51.9-59.6c-25.8-9.8-37.1-15.4-37.1-28.2c0-10.4,9.5-19.3,29.1-19.3s33.8,5.6,41.8,9.5l10.1-36.5c-11.9-5.3-28.4-10.1-51-10.1c-47.2,0-75.7,26.1-75.7,60.2c0,29,21.7,47.4,54.9,59.1c24,8.6,33.5,15.7,33.5,28.2c0,13-11,21.7-31.8,21.7c-19.2,0-37.9-6.2-50.1-12.5l-9.2,37.4c11.3,6.2,33.8,12.2,56.7,12.2C299,621.6,324.8,593.1,324.8,559.6z M523.1,618.6l-62-199.9h-59.3l-61.2,199.9h46.9l14.2-51.3H459l15.4,51.3H523.1z M674.6,580.6H595v-162h-45.4v199.9h124.9L674.6,580.6L674.6,580.6z M828.8,581.6h-82.2v-47.5h73.6v-36.8h-73.6v-41.5h78.1v-37.1H701.3v199.9h127.5V581.6z"/></g><g></g><g></g><g></g><g></g><g></g><g></g><g></g><g></g><g></g><g></g><g></g><g></g><g></g><g></g><g></g></g>
</svg>